<?xml version="1.0" encoding="UTF-8" standalone="no"?>
<!-- Created with Inkscape (http://www.inkscape.org/) -->

<svg
   xmlns:dc="http://purl.org/dc/elements/1.1/"
   xmlns:cc="http://creativecommons.org/ns#"
   xmlns:rdf="http://www.w3.org/1999/02/22-rdf-syntax-ns#"
   xmlns:svg="http://www.w3.org/2000/svg"
   xmlns="http://www.w3.org/2000/svg"
   xmlns:sodipodi="http://sodipodi.sourceforge.net/DTD/sodipodi-0.dtd"
   xmlns:inkscape="http://www.inkscape.org/namespaces/inkscape"
   width="32px"
   height="32px"
   id="svg3002"
   version="1.1"
   inkscape:version="0.48.4 r9939"
   sodipodi:docname="ini.svg">
  <defs
     id="defs3004" />
  <sodipodi:namedview
     id="base"
     pagecolor="#ffffff"
     bordercolor="#666666"
     borderopacity="1.0"
     inkscape:pageopacity="0.0"
     inkscape:pageshadow="2"
     inkscape:zoom="11.197802"
     inkscape:cx="45.740983"
     inkscape:cy="21.987542"
     inkscape:current-layer="layer1"
     showgrid="true"
     inkscape:grid-bbox="true"
     inkscape:document-units="px"
     inkscape:snap-page="true"
     inkscape:window-width="1280"
     inkscape:window-height="776"
     inkscape:window-x="0"
     inkscape:window-y="24"
     inkscape:window-maximized="1" />
  <metadata
     id="metadata3007">
    <rdf:RDF>
      <cc:Work
         rdf:about="">
        <dc:format>image/svg+xml</dc:format>
        <dc:type
           rdf:resource="http://purl.org/dc/dcmitype/StillImage" />
        <dc:title></dc:title>
      </cc:Work>
    </rdf:RDF>
  </metadata>
  <g
     id="layer1"
     inkscape:label="Layer 1"
     inkscape:groupmode="layer">
    <path
       inkscape:connector-curvature="0"
       style="opacity:0.64071859;fill:#0000ff;fill-opacity:1;stroke:#00003e;stroke-width:0;stroke-miterlimit:4;stroke-opacity:1;stroke-dasharray:none"
       d="M 15.647713,32.426995 C 15.838035,19.658213 22.546498,9.2536415 30.631485,9.1877494 L 1.3531585,9.4263657 C 9.4381453,9.3604736 15.838035,19.658213 15.647713,32.426995 z"
       id="path3009" />
    <path
       style="fill:#cccccc;fill-opacity:1;stroke:#000000;stroke-width:0;stroke-miterlimit:4;stroke-opacity:1;stroke-dasharray:none"
       d="M 16 0 C 7.163444 9.2402937e-16 7.7666216e-19 3.7175342 0 8.3125 C 0 8.5354773 0.029390232 8.7501964 0.0625 8.96875 L 31.9375 8.96875 C 31.97061 8.7501964 32 8.5354773 32 8.3125 C 32 3.7175342 24.836556 -1.8277671e-15 16 0 z "
       id="path2994" />
    <text
       xml:space="preserve"
       style="font-size:8.80815983px;font-style:normal;font-weight:normal;line-height:125%;letter-spacing:0px;word-spacing:0px;fill:#000000;fill-opacity:1;stroke:none;font-family:Sans"
       x="4.8576617"
       y="8.086813"
       id="text3032"
       sodipodi:linespacing="125%"
       transform="scale(0.95818493,1.0436399)"><tspan
         sodipodi:role="line"
         id="tspan3034"
         x="4.8576617"
         y="8.086813">Inicio</tspan></text>
    <path
       style="fill:#ff0000;fill-opacity:1;stroke:#000000;stroke-width:0;stroke-miterlimit:4;stroke-opacity:1;stroke-dasharray:none"
       d="M 0.05476539,8.3737435 C 0.057283,7.3943664 0.45480836,6.2380926 1.0756179,5.4044108 1.5678516,4.7433927 2.5437731,3.8455049 3.3576653,3.3048335 4.1210353,2.7977243 5.2106324,2.1894942 5.3557096,2.1894942 c 0.030762,0 0.05593,1.406526 0.05593,3.1256134 l 0,3.1256134 0.4900939,0 0.490094,0 0.0234,-3.3711973 0.0234,-3.3711973 0.8037291,-0.2828589 c 4.9056914,-1.72647494 11.7225144,-1.81063444 16.8691524,-0.208264 2.624928,0.8172534 4.664905,1.9403777 6.029205,3.3194223 1.146615,1.1590061 1.699846,2.2750053 1.774195,3.5789698 l 0.04457,0.7816416 -15.953015,0 -15.95301521,0 0.00132,-0.5134937 z m 18.41161461,0.099861 0.519352,-0.1457229 0,-0.4443027 c 0,-0.3888546 -0.0195,-0.4360326 -0.15628,-0.3780353 -0.805066,0.3413701 -1.265445,0.3900556 -1.754836,0.1855752 -1.20115,-0.5018726 -1.233395,-2.8821828 -0.04735,-3.4955094 0.352793,-0.1824369 1.037681,-0.1596799 1.499378,0.04982 0.214111,0.097155 0.404997,0.1766452 0.424191,0.1766452 0.01919,0 0.0349,-0.1993755 0.0349,-0.4430565 l 0,-0.4430566 -0.462724,-0.1374145 c -1.698986,-0.5045445 -3.029649,0.3621776 -3.238438,2.1093419 -0.06708,0.5613351 0.06859,1.4814123 0.280473,1.9020511 0.514424,1.0212705 1.614749,1.4246622 2.901337,1.0636641 l 0,0 z m 6.636624,0.047004 C 25.554167,8.3971846 26.223183,7.7237387 26.38003,7.2351272 26.705366,6.2216382 26.585668,4.8254751 26.112153,4.1105982 25.44347,3.101072 23.840224,2.9564066 22.969594,3.8270364 22.433919,4.362712 22.260158,4.9681681 22.303793,6.1469688 c 0.03034,0.8195326 0.06133,0.9597053 0.309219,1.3984731 0.151526,0.2682053 0.374222,0.5613507 0.494878,0.6514343 0.516863,0.385893 1.302128,0.5133124 1.995114,0.3237327 l 0,0 z M 8.717821,6.8109368 C 8.719521,5.3971993 8.74251,5.131085 8.8912352,4.8034589 9.2933185,3.9177088 10.401212,3.8014974 10.814996,4.6016679 c 0.105373,0.2037696 0.133445,0.6347042 0.133445,2.0485535 l 0,1.7904996 0.455261,0 0.455262,0 -0.03115,-1.9423455 C 11.798617,4.6775601 11.783622,4.529528 11.588147,4.132463 11.316358,3.5803764 10.954729,3.3284063 10.363835,3.2794048 9.7784307,3.2308585 9.3615337,3.3654856 8.9986679,3.7202544 l -0.2828082,0.2764976 0,-0.3280509 0,-0.3280508 -0.4241904,0.027219 -0.4241904,0.027219 -0.023716,2.5228165 -0.023717,2.5228166 0.4479071,0 0.4479069,0 0.00196,-1.6297842 z m 5.356233,-0.9153582 0,-2.5451423 -0.401865,0 -0.401864,0 0,2.5451423 0,2.5451424 0.401864,0 0.401865,0 0,-2.5451424 z m 7.054956,0 0,-2.5451423 -0.446516,0 -0.446516,0 0,2.5451423 0,2.5451424 0.446516,0 0.446516,0 0,-2.5451424 z m -7.054956,-3.9293425 0,-0.5804711 -0.401865,0 -0.401864,0 0,0.5804711 0,0.580471 0.401864,0 0.401865,0 0,-0.580471 z m 7.054956,0 0,-0.5804711 -0.446516,0 -0.446516,0 0,0.5804711 0,0.580471 0.446516,0 0.446516,0 0,-0.580471 z"
       id="path3018"
       inkscape:connector-curvature="0" />
    <path
       style="fill:#ccff00;fill-opacity:1;stroke:#000000;stroke-width:0;stroke-miterlimit:4;stroke-opacity:1;stroke-dasharray:none"
       d="m 23.825241,7.6400413 c -0.44641,-0.280069 -0.638334,-0.7911416 -0.638334,-1.699811 0,-0.9120968 0.192324,-1.4226575 0.638334,-1.6945828 1.181563,-0.7203805 2.235558,0.8380949 1.726379,2.5526874 -0.257491,0.8670648 -1.061298,1.2589658 -1.726379,0.8417064 z"
       id="path3020"
       inkscape:connector-curvature="0" />
    <path
       style="fill:#ccff00;fill-opacity:1;stroke:#000000;stroke-width:0;stroke-miterlimit:4;stroke-opacity:1;stroke-dasharray:none"
       d="M 0.05620269,8.7309565 C 0.0577192,8.6450021 0.09688397,8.2826852 0.14323551,7.9258079 0.4059516,5.9030609 1.7797609,4.2478259 4.4980721,2.67888 4.9042703,2.4444319 5.2520986,2.2685493 5.2710237,2.2880298 c 0.018925,0.019481 0.063879,1.4118054 0.099898,3.0940552 l 0.065488,3.058636 0.4787828,0 c 0.2633307,0 0.4857206,-0.010047 0.4942,-0.022326 0.00848,-0.012279 0.038619,-1.5272723 0.066977,-3.3666511 L 6.5279303,1.7074188 7.5995692,1.358089 C 8.8299722,0.95700578 10.710783,0.54420473 12.198686,0.34867329 13.673151,0.15490774 17.032921,0.08590292 18.52242,0.21879293 c 4.908034,0.43788471 9.005288,1.93286377 11.317867,4.12958877 1.283752,1.2194381 1.84392,2.2313142 2.002766,3.6177515 0.0496,0.432932 0.09051,0.817289 0.09092,0.8541265 4.03e-4,0.036838 -7.172551,0.066978 -15.939896,0.066978 -15.12306593,0 -15.94048719,-0.00802 -15.93787131,-0.1562807 z M 18.740148,8.4525169 c 0.2225,-0.087591 0.245584,-0.1388579 0.245584,-0.545405 0,-0.2467996 -0.03513,-0.4487266 -0.07807,-0.4487266 -0.04294,0 -0.248926,0.06028 -0.457744,0.1339549 -1.306377,0.4609167 -2.18793,-0.2047451 -2.18793,-1.6521099 0,-0.7872295 0.203124,-1.2689268 0.668424,-1.5851326 0.349675,-0.2376307 1.008072,-0.2647393 1.564157,-0.064402 0.196468,0.07078 0.387353,0.1292956 0.424191,0.1300351 0.03684,7.412e-4 0.06698,-0.2163509 0.06698,-0.4824232 l 0,-0.4837678 -0.450911,-0.096703 C 16.62748,2.948785 15.401918,3.7984986 15.260988,5.6276689 c -0.100867,1.3091745 0.332699,2.2837171 1.224254,2.7518013 0.457959,0.240438 0.542489,0.2548932 1.250245,0.2137991 0.417493,-0.024241 0.86959,-0.087579 1.004661,-0.1407524 l 0,0 z m 6.468672,0.07219 C 25.550288,8.3961865 26.104476,7.8483612 26.332696,7.4137337 26.758107,6.6035708 26.599397,4.656879 26.052673,3.9790444 25.339814,3.0952338 23.79992,2.9953616 22.973874,3.779364 22.464742,4.2625824 22.34437,4.6325299 22.306287,5.8311109 c -0.03283,1.0331719 -0.02159,1.1235542 0.194648,1.565528 0.279591,0.5714641 0.638116,0.9285838 1.096172,1.091876 0.414873,0.1478981 1.264244,0.1669714 1.611713,0.036192 l 0,0 z M 8.7469627,7.8379241 C 8.7782745,7.5063858 8.8041789,6.7613354 8.8045281,6.1822565 8.8050549,5.3047398 8.8350554,5.0707915 8.9846455,4.7775707 9.2582429,4.2412762 9.9376718,3.9892835 10.417568,4.246116 c 0.354535,0.1897412 0.419716,0.5085063 0.487938,2.3862144 l 0.0657,1.8083906 0.474619,0 0.474619,0 -0.04459,-1.763739 C 11.826285,4.7165213 11.752384,4.2446601 11.428277,3.8191844 11.084866,3.368367 10.750603,3.2370185 10.047809,3.27673 9.524471,3.3063012 9.3929015,3.3505865 9.0790426,3.6028103 l -0.3631829,0.2918619 0,-0.3057998 0,-0.3057999 -0.4241904,0.045564 c -0.2333047,0.02506 -0.4324042,0.05178 -0.4424434,0.059377 -0.010039,0.0076 -0.030132,1.147595 -0.044652,2.533329 l -0.026399,2.5195165 0.4559283,-6.9e-5 0.4559283,-6.89e-5 0.05693,-0.6027969 z m 5.3270913,-1.9423455 0,-2.5451423 -0.401865,0 -0.401864,0 0,2.5451423 0,2.5451424 0.401864,0 0.401865,0 0,-2.5451424 z m 7.054956,0 0,-2.5451423 -0.446516,0 -0.446516,0 0,2.5451423 0,2.5451424 0.446516,0 0.446516,0 0,-2.5451424 z m -7.054956,-3.9293425 0,-0.5804711 -0.401865,0 -0.401864,0 0,0.5804711 0,0.580471 0.401864,0 0.401865,0 0,-0.580471 z m 7.054956,0 0,-0.5804711 -0.446516,0 -0.446516,0 0,0.5804711 0,0.580471 0.446516,0 0.446516,0 0,-0.580471 z"
       id="path3022"
       inkscape:connector-curvature="0" />
  </g>
</svg>
